OpenSim_Sub08_CSStiffKnee_RCS.mot
version=1
nRows=81
nColumns=11
inDegrees=no
endheader
time	Top_Thigh	Med_Thigh	Bot_Thigh	Top_Shank	2nd_Top_Shank	2nd_Bot_Shank	Bot_Shank	BNOx	BNOy	BNOZ
13.20000000	1703.76927847	1635.55984742	1312.31008542	1317.69366812	1316.61627328	1317.89836968	1159.14748551	-142.85094337	-65.35962797	-124.61627568
13.21000000	1701.92010062	1635.11627585	1311.96931420	1317.49980805	1316.12401866	1317.44813101	1159.75426611	-145.32516986	-64.91785299	-123.23344472
13.22000000	1699.70006607	1634.68766593	1311.82132846	1317.31775258	1315.59721334	1316.84792500	1160.54846559	-135.51012838	-64.52100191	-121.87265738
13.23000000	1697.06648821	1634.23198902	1311.90428951	1317.16338556	1315.05950269	1316.09458195	1161.51142971	-110.90799861	-64.17312389	-120.59923473
13.24000000	1693.97668047	1633.70721646	1312.25635863	1317.05259084	1314.53453210	1315.18493214	1162.62450426	-69.02096022	-63.87826808	-119.47849783
13.25000000	1690.38795626	1633.07131962	1312.91569713	1317.00125224	1314.04594697	1314.11580587	1163.86903502	-7.35119291	-63.64048363	-118.57576777
13.26000000	1686.34326520	1632.31147837	1313.90035324	1317.01686203	1313.61818758	1312.91774909	1165.19346616	74.83609428	-63.46332901	-117.94304767
13.27000000	1682.34874421	1631.57285497	1315.11958819	1317.06152408	1313.27999374	1311.80366838	1166.36828439	168.73985569	-63.34770875	-117.56030691
13.28000000	1679.06641398	1631.05378005	1316.44605138	1317.08206707	1313.06155223	1311.04784303	1167.10408559	262.34980015	-63.29363417	-117.38327220
13.29000000	1677.15841264	1630.95262425	1317.75236463	1317.02530811	1312.99305091	1310.92459855	1167.11142051	343.65321805	-63.30111594	-117.36765197
13.30000000	1677.20048821	1631.44324879	1318.92207302	1316.84540563	1313.09922985	1311.65655275	1166.14436122	402.00642513	-63.36995282	-117.47235421
13.31000000	1679.12991167	1632.51837475	1319.91945158	1316.55077452	1313.36456642	1313.08417109	1164.27862977	436.88368997	-63.49837734	-117.67993368
13.32000000	1682.59778672	1634.08953565	1320.74495872	1316.17414765	1313.75549216	1314.87663724	1161.73411263	452.29417758	-63.68392007	-117.98354366
13.33000000	1687.25386721	1636.06788206	1321.39922353	1315.74837255	1314.23835345	1316.70232690	1158.73137633	452.26844397	-63.92410827	-118.37638743
13.34000000	1692.74790700	1638.36456454	1321.88287508	1315.30629679	1314.77949671	1318.22961579	1155.49098737	440.83704519	-64.21646920	-118.85166825
13.35000000	1698.72965992	1640.89073367	1322.19654247	1314.88076793	1315.34526834	1319.12687963	1152.23351227	422.03053724	-64.55853010	-119.40258941
13.36000000	1704.84887984	1643.55754000	1322.34085477	1314.50463351	1315.90201473	1319.06249415	1149.17951752	399.87947615	-64.94781824	-120.02235418
13.37000000	1710.75532059	1646.27613411	1322.31644107	1314.21074109	1316.41608230	1317.70483504	1146.54956965	378.41441796	-65.38186087	-120.70416585
13.38000000	1716.09873604	1648.95766656	1322.12393046	1314.03193822	1316.85381743	1314.72227805	1144.56423515	361.66591867	-65.85818525	-121.44122769
13.39000000	1720.54926831	1651.51798668	1321.76773748	1313.99907553	1317.18305950	1309.82311972	1143.43063541	353.39151505	-66.37367911	-122.22909974
13.40000000	1724.08212859	1653.94325129	1321.30891819	1314.11312370	1317.39398697	1303.31299071	1143.15471270	353.26356655	-66.91566104	-123.09860634
13.41000000	1726.90737080	1656.27374004	1320.85213146	1314.35205174	1317.49397498	1295.95735064	1143.58754123	357.80965510	-67.46408327	-124.10771836
13.42000000	1729.24108987	1658.55112481	1320.50315775	1314.69323699	1317.49084106	1288.53348755	1144.57621146	363.47646799	-67.99870854	-125.31510495
13.43000000	1731.29938070	1660.81707747	1320.36777753	1315.11405680	1317.39240271	1281.81868944	1145.96781386	366.71069254	-68.49929960	-126.77943527
13.44000000	1733.29833821	1663.11326991	1320.55177128	1315.59188850	1317.20647743	1276.59024435	1147.60943889	363.95901606	-68.94561921	-128.55937848
13.45000000	1735.45364054	1665.48130305	1321.16063971	1316.10409373	1316.94089040	1273.62377536	1149.34839136	351.67611766	-69.31747148	-130.71335393
13.46000000	1737.89261338	1667.94773597	1322.24057822	1316.62470420	1316.60508876	1273.34193832	1151.07741651	328.01094081	-69.60343430	-133.24682296
13.47000000	1740.54545631	1670.50556739	1323.70546419	1317.12032212	1316.21213849	1275.37987259	1152.79064322	294.89255643	-69.81166096	-136.04709048
13.48000000	1743.31569649	1673.14325512	1325.45127148	1317.55654444	1315.77559526	1279.26616141	1154.49591822	254.76151149	-69.95295343	-138.98547412
13.49000000	1746.10686106	1675.84925693	1327.37397397	1317.89896810	1315.30901471	1284.52938799	1156.20108827	210.05835295	-70.03811365	-141.93329146
13.50000000	1748.82247717	1678.61203062	1329.36954553	1318.11319007	1314.82595249	1290.69813554	1157.91400009	163.22362778	-70.07794361	-144.76186012
13.51000000	1751.36607197	1681.42003398	1331.33396004	1318.16480730	1314.33996426	1297.30098730	1159.64250043	116.69788294	-70.08324526	-147.34249770
13.52000000	1753.64117261	1684.26172480	1333.16319138	1318.01941673	1313.86460567	1303.86652648	1161.39443604	72.92166539	-70.06482056	-149.54652180
13.53000000	1755.55130624	1687.12556088	1334.75321340	1317.64261531	1313.41343236	1309.92333631	1163.17765365	34.33552209	-70.03347149	-151.24525004
13.54000000	1757	1690	1336	1317	1313	1315	1165	3.38000000	-70	-152.31000000
13.55000000	1757.92603016	1692.86777105	1336.84635587	1316.07991009	1312.63699384	1318.73178762	1166.86125031	-18.14612518	-69.97322313	-152.67619951
13.56000000	1758.40916947	1695.68868728	1337.42240904	1314.96165424	1312.33361762	1321.18071663	1168.72889371	-31.01116283	-69.95401824	-152.53571722
13.57000000	1758.56443977	1698.41683303	1337.90511836	1313.74728347	1312.09820469	1322.51549132	1170.56234778	-36.62519361	-69.94127772	-152.14453198
13.58000000	1758.50686293	1701.00629264	1338.47144270	1312.53884878	1311.93908839	1322.90481599	1172.32103014	-36.39829817	-69.93389402	-151.75862267
13.59000000	1758.35146080	1703.41115046	1339.29834090	1311.43840117	1311.86460206	1322.51739495	1173.96435837	-31.74055717	-69.93075954	-151.63396814
13.60000000	1758.21325524	1705.58549084	1340.56277183	1310.54799165	1311.88307906	1321.52193249	1175.45175007	-24.06205125	-69.93076671	-152.02654725
13.61000000	1758.20726810	1707.48339810	1342.44169434	1309.96967123	1312.00285273	1320.08713291	1176.74262285	-14.77286107	-69.93280795	-153.19233886
13.62000000	1758.44852125	1709.05895661	1345.11206729	1309.80549092	1312.23225642	1318.38170052	1177.79639429	-5.28306728	-69.93577567	-155.38732184
13.63000000	1759.05203654	1710.26625069	1348.75084954	1310.15750172	1312.57962347	1316.57433960	1178.57248201	2.99724946	-69.93856229	-158.86747504
13.64000000	1760.13276070	1711.05941681	1353.53486954	1311.12766648	1313.05327915	1314.83372773	1179.03033383	8.65849049	-69.94006072	-163.88795696
13.65000000	1761.70593880	1711.46173759	1359.46792611	1312.70096360	1313.65082997	1313.29306184	1179.16953436	10.93065144	-69.93980837	-169.61528964
13.66000000	1763.49056603	1711.70195415	1366.03968391	1314.51476806	1314.33803306	1311.98011297	1179.10892906	10.94419535	-69.93925766	-171.98126004
13.67000000	1765.15092867	1712.04673558	1372.64483946	1316.14227256	1315.07476161	1310.90315573	1178.98938809	10.18069290	-69.94021462	-166.32075058
13.68000000	1766.43504961	1712.68559963	1378.79394296	1317.26844093	1315.82686809	1310.06405411	1178.91885097	9.77726983	-69.94385647	-149.49228236
13.69000000	1767.33976381	1713.57881938	1384.34178815	1317.91034977	1316.57797162	1309.44562376	1178.90740829	9.84758064	-69.94949205	-122.88166157
13.70000000	1767.90790776	1714.64428406	1389.20681409	1318.14647823	1317.31497607	1309.02715863	1178.94705990	10.31605574	-69.95608476	-88.71171972
13.71000000	1768.18231794	1715.79988295	1393.30745983	1318.05530543	1318.02478534	1308.78795264	1179.02980562	11.10712556	-69.96259802	-49.20528832
13.72000000	1768.20583083	1716.96350529	1396.56216444	1317.71531051	1318.69430331	1308.70729972	1179.14764529	12.14522051	-69.96799522	-6.58519890
13.73000000	1768.02128291	1718.05304033	1398.88936698	1317.20497261	1319.31043386	1308.76449380	1179.29257875	13.35477102	-69.97123977	36.92571705
13.74000000	1767.67151066	1718.98637732	1400.20750650	1316.60277086	1319.86008089	1308.93882882	1179.45660583	14.66020750	-69.97129507	79.10462800
13.75000000	1767.19935056	1719.68140553	1400.43502208	1315.98718439	1320.33014828	1309.20959871	1179.63172638	15.98596038	-69.96712453	117.72870245
13.76000000	1766.64763910	1720.05601420	1399.49035277	1315.43669235	1320.70753991	1309.55609739	1179.80994022	17.25646007	-69.95769156	150.57510889
13.77000000	1766.05921275	1720.02809259	1397.29193763	1315.02977386	1320.97915968	1309.95761879	1179.98324719	18.39613699	-69.94195956	175.42101580
13.78000000	1765.47071083	1719.53717785	1393.83393736	1314.82476742	1321.13940378	1310.39478692	1180.14250879	19.34398479	-69.91927518	190.55159210
13.79000000	1764.88525361	1718.63989589	1389.52007429	1314.77107531	1321.22319272	1310.85541976	1180.27242949	20.11776639	-69.89105805	196.99966890
13.80000000	1764.29468062	1717.43227833	1384.89190698	1314.78143773	1321.27908529	1311.32975643	1180.35564163	20.76175416	-69.85942542	196.72279141
13.81000000	1763.69082291	1716.01038648	1380.49109785	1314.76856730	1321.35565055	1311.80803786	1180.37477601	21.32024047	-69.82649506	191.67920167
13.82000000	1763.06551153	1714.47028165	1376.85930933	1314.64517661	1321.50145756	1312.28050499	1180.31246342	21.83751768	-69.79438477	183.82714174
13.83000000	1762.41057754	1712.90802517	1374.53820385	1314.32397825	1321.76507538	1312.73739874	1180.15133463	22.35787814	-69.76521231	175.12485366
13.84000000	1761.71844235	1711.41865945	1374.05916348	1313.71969070	1322.19402868	1313.16909279	1179.87445750	22.92520402	-69.74100890	167.50614107
13.85000000	1761.00447825	1710.05761696	1375.55392063	1312.82501079	1322.79524075	1313.57112102	1179.48189008	23.56743130	-69.72043985	161.95476377
13.86000000	1760.31387149	1708.82887544	1378.63504876	1311.73393193	1323.52289230	1313.94572056	1178.99576138	24.29178125	-69.69779813	158.22034112
13.87000000	1759.69380085	1707.73297386	1382.88042506	1310.54721742	1324.32763918	1314.29557658	1178.43967542	25.10409077	-69.66708446	155.97001275
13.88000000	1759.19144511	1706.77045117	1387.86792669	1309.36563050	1325.16013723	1314.62337419	1177.83723625	26.01019674	-69.62229960	154.87091830
13.89000000	1758.85398305	1705.94184631	1393.17543083	1308.28993445	1325.97104227	1314.93179856	1177.21204789	27.01593607	-69.55744426	154.59019741
13.90000000	1758.72859343	1705.24769824	1398.38081466	1307.42089253	1326.71101015	1315.22353481	1176.58771438	28.12714563	-69.46651920	154.79498974
13.91000000	1758.86245504	1704.68854591	1403.06195537	1306.85926802	1327.33069671	1315.50126810	1175.98783975	29.34966232	-69.34352514	155.15243492
13.92000000	1759.30274664	1704.26492827	1406.79673012	1306.70582416	1327.78075778	1315.76768356	1175.43602803	30.68932303	-69.18246283	155.32967259
13.93000000	1760.09660136	1703.97737947	1409.16315277	1307.06128614	1328.01186631	1316.02546583	1174.95587829	32.15196342	-68.97733334	154.99391785
13.94000000	1761.23055019	1703.82006400	1409.92060027	1307.97581909	1327.99740625	1316.27662745	1174.56440357	33.74177778	-68.72259283	153.91249881
13.95000000	1762.51105325	1703.76821976	1409.36734535	1309.34935596	1327.77824410	1316.52118392	1174.25904742	35.45808339	-68.41404964	152.15021587
13.96000000	1763.71127831	1703.79358541	1407.90129428	1311.05405406	1327.40772290	1316.75878153	1174.03363531	37.29929582	-68.04776209	149.82686747
13.97000000	1764.60439315	1703.86789961	1405.92035332	1312.96207071	1326.93918566	1316.98906656	1173.88199270	39.26383065	-67.61978852	147.06225202
13.98000000	1764.96356554	1703.96290102	1403.82242874	1314.94556321	1326.42597540	1317.21168529	1173.79794504	41.35010345	-67.12618726	143.97616798
13.99000000	1764.56196326	1704.05032832	1402.00542681	1316.87668889	1325.92143514	1317.42628401	1173.77531778	43.55652980	-66.56301665	140.68841376
14	1763.17275407	1704.10192016	1400.86725379	1318.62760506	1325.47890789	1317.63250900	1173.80793639	45.88152528	-65.92633502	137.31878782
